<svg xmlns="http://www.w3.org/2000/svg" viewBox="13.38 12.25 79 79">
  <!-- The favicon: the two bubbles alone, no tile, trimmed to the art so they fill the tab's square.
       On a dark tab bar the assistant's bubble lifts a step, so it doesn't vanish. -->
  <path d="M31.76 15.49H63.76A18 18 0 0 1 81.76 33.49V45.49A18 18 0 0 1 63.76 63.49L73.76 71.49L53.76 63.49H31.76A18 18 0 0 1 13.76 45.49V33.49A18 18 0 0 1 31.76 15.49Z" fill="#D7784F"/>
  <style>@media (prefers-color-scheme: dark) { .ai { fill: #3A4A86; } }</style>
  <path class="ai" d="M40 26H74A18 18 0 0 1 92 44V62A18 18 0 0 1 74 80L84 88L64 80H40A18 18 0 0 1 22 62V44A18 18 0 0 1 40 26Z" fill="#18213F"/>
  <g fill="#3EE6FF"><rect x="42.91" y="44.31" width="9.33" height="17.49" rx="2.99"/><rect x="61.76" y="44.31" width="9.33" height="17.49" rx="2.99"/></g>
</svg>
