<svg xmlns="http://www.w3.org/2000/svg" width="2160" height="2160" viewBox="0 0 2160 2160"><rect width="2160" height="2160" fill="#F6F7F9"/><defs><clipPath id="pc"><rect x="172.8" y="1252.8" width="2125.44" height="1045.44" rx="138.24"/></clipPath><filter id="sh" x="-50%" y="-50%" width="200%" height="200%"><feGaussianBlur stdDeviation="34.02"/></filter></defs><rect x="172.8" y="1252.8" width="2125.44" height="1045.44" rx="138.24" fill="#E9ECF1"/><g clip-path="url(#pc)"><g transform="translate(1007.42 1196.1) scale(94.5000)"><g transform="translate(9 8.64) scale(0.19325) translate(-52.88 -51.745)"><path d="M31.76 15.49 H63.76 A18 18 0 0 1 81.76 33.49 V45.49 A18 18 0 0 1 63.76 63.49 H63.76 L73.76 71.49 L53.76 63.49 H31.76 A18 18 0 0 1 13.76 45.49 V33.49 A18 18 0 0 1 31.76 15.49 Z" fill="#EBCDBD"/><path d="M40 26 H74 A18 18 0 0 1 92 44 V62 A18 18 0 0 1 74 80 H74 L84 88 L64 80 H40 A18 18 0 0 1 22 62 V44 A18 18 0 0 1 40 26 Z" fill="#CDD3E2"/><g fill="#E3E7EF"><rect x="42.91" y="44.31" width="9.33" height="17.49" rx="2.99"/><rect x="61.76" y="44.31" width="9.33" height="17.49" rx="2.99"/></g></g></g></g><rect x="956.84" y="1513.62" width="453.6" height="453.6" rx="102.06" fill="#1A1B1E" opacity="0.22" filter="url(#sh)"/><svg x="939.6" y="1479.6" width="453.6" height="453.6" viewBox="0 0 18 18"><defs><linearGradient id="t13g" gradientUnits="userSpaceOnUse" x1="2.853" y1="-1.647" x2="15.147" y2="19.647"><stop offset="0" stop-color="#F4F4F2"/><stop offset="1" stop-color="#E6E6E3"/></linearGradient><filter id="t13b" x="-20%" y="-20%" width="140%" height="140%"><feGaussianBlur stdDeviation="2.2"/></filter></defs><rect width="18" height="18" rx="4.05" fill="url(#t13g)"/><g transform="translate(-1.254 -0.263) scale(0.19387)"><g filter="url(#t13b)" opacity="0.22" transform="translate(0 2)"><path d="M31.76 15.49 H63.76 A18 18 0 0 1 81.76 33.49 V45.49 A18 18 0 0 1 63.76 63.49 H63.76 L73.76 71.49 L53.76 63.49 H31.76 A18 18 0 0 1 13.76 45.49 V33.49 A18 18 0 0 1 31.76 15.49 Z"/><path d="M40 26 H74 A18 18 0 0 1 92 44 V62 A18 18 0 0 1 74 80 H74 L84 88 L64 80 H40 A18 18 0 0 1 22 62 V44 A18 18 0 0 1 40 26 Z"/></g><path d="M31.76 15.49 H63.76 A18 18 0 0 1 81.76 33.49 V45.49 A18 18 0 0 1 63.76 63.49 H63.76 L73.76 71.49 L53.76 63.49 H31.76 A18 18 0 0 1 13.76 45.49 V33.49 A18 18 0 0 1 31.76 15.49 Z" fill="#D7784F"/><path d="M40 26 H74 A18 18 0 0 1 92 44 V62 A18 18 0 0 1 74 80 H74 L84 88 L64 80 H40 A18 18 0 0 1 22 62 V44 A18 18 0 0 1 40 26 Z" fill="#18213F"/><g fill="#3EE6FF"><rect x="42.91" y="44.31" width="9.33" height="17.49" rx="2.99"/><rect x="61.76" y="44.31" width="9.33" height="17.49" rx="2.99"/></g></g></svg><filter id="lkf" x="-20%" y="-20%" width="140%" height="140%"><feGaussianBlur stdDeviation="2.98"/></filter><rect x="172.8" y="158.42" width="119.13" height="119.13" rx="26.8" fill="#1A1B1E" opacity="0.15" filter="url(#lkf)"/><svg x="172.8" y="156.44" width="119.13" height="119.13" viewBox="0 0 18 18"><defs><linearGradient id="t14g" gradientUnits="userSpaceOnUse" x1="2.853" y1="-1.647" x2="15.147" y2="19.647"><stop offset="0" stop-color="#F4F4F2"/><stop offset="1" stop-color="#E6E6E3"/></linearGradient><filter id="t14b" x="-20%" y="-20%" width="140%" height="140%"><feGaussianBlur stdDeviation="2.2"/></filter></defs><rect width="18" height="18" rx="4.05" fill="url(#t14g)"/><g transform="translate(-1.254 -0.263) scale(0.19387)"><g filter="url(#t14b)" opacity="0.22" transform="translate(0 2)"><path d="M31.76 15.49 H63.76 A18 18 0 0 1 81.76 33.49 V45.49 A18 18 0 0 1 63.76 63.49 H63.76 L73.76 71.49 L53.76 63.49 H31.76 A18 18 0 0 1 13.76 45.49 V33.49 A18 18 0 0 1 31.76 15.49 Z"/><path d="M40 26 H74 A18 18 0 0 1 92 44 V62 A18 18 0 0 1 74 80 H74 L84 88 L64 80 H40 A18 18 0 0 1 22 62 V44 A18 18 0 0 1 40 26 Z"/></g><path d="M31.76 15.49 H63.76 A18 18 0 0 1 81.76 33.49 V45.49 A18 18 0 0 1 63.76 63.49 H63.76 L73.76 71.49 L53.76 63.49 H31.76 A18 18 0 0 1 13.76 45.49 V33.49 A18 18 0 0 1 31.76 15.49 Z" fill="#D7784F"/><path d="M40 26 H74 A18 18 0 0 1 92 44 V62 A18 18 0 0 1 74 80 H74 L84 88 L64 80 H40 A18 18 0 0 1 22 62 V44 A18 18 0 0 1 40 26 Z" fill="#18213F"/><g fill="#3EE6FF"><rect x="42.91" y="44.31" width="9.33" height="17.49" rx="2.99"/><rect x="61.76" y="44.31" width="9.33" height="17.49" rx="2.99"/></g></g></svg><path d="M333.68 237.44V231.25H344.74Q349.63 231.25 353.08 229.27Q356.54 227.3 358.36 223.8Q360.19 220.31 360.19 215.76Q360.19 211.27 358.38 207.9Q356.58 204.52 353.13 202.64Q349.69 200.75 344.74 200.75H333.8V194.56H344.74Q351.79 194.56 357.03 197.17Q362.27 199.78 365.16 204.57Q368.05 209.37 368.05 215.88Q368.05 222.39 365.13 227.25Q362.21 232.1 357 234.77Q351.79 237.44 344.8 237.44ZM328.98 237.44V194.56H336.72V237.44ZM382.58 238.04Q379.45 238.04 377.14 236.7Q374.84 235.36 373.61 233.05Q372.38 230.73 372.38 227.81V207.07H379.92V226.25Q379.92 229.06 381.32 230.47Q382.72 231.88 385.29 231.88Q387.59 231.88 389.36 230.81Q391.12 229.74 392.16 227.82Q393.21 225.91 393.21 223.43L393.98 230.71Q392.49 234.03 389.53 236.03Q386.58 238.04 382.58 238.04ZM393.43 237.44V230.3H393.21V207.07H400.75V237.44ZM421.16 238.04Q416.34 238.04 412.68 236.01Q409.03 233.99 407 230.38Q404.96 226.78 404.96 222.14Q404.96 217.47 407.01 213.95Q409.05 210.44 412.69 208.46Q416.34 206.47 421.16 206.47Q426.05 206.47 429.69 208.46Q433.33 210.44 435.35 213.95Q437.36 217.47 437.36 222.14Q437.36 226.78 435.33 230.38Q433.29 233.99 429.65 236.01Q426.01 238.04 421.16 238.04ZM421.16 232Q423.58 232 425.47 230.78Q427.36 229.56 428.45 227.34Q429.54 225.11 429.54 222.08Q429.54 217.59 427.17 215.05Q424.8 212.51 421.16 212.51Q417.55 212.51 415.17 215.07Q412.78 217.63 412.78 222.08Q412.78 225.11 413.88 227.34Q414.97 229.56 416.86 230.78Q418.76 232 421.16 232ZM446.91 237.44V200.67H432.68V194.56H468.89V200.67H454.66V237.44ZM469.83 249.65 477.69 232 479.08 229.74 487.64 207.07H495.62L477.47 249.65ZM476.56 237.15 464.23 207.07H472.41L482.71 234.33ZM516.01 238.02Q511.68 238.02 508.96 235.97Q506.24 233.93 505.57 230.32L506.2 230.24V249.65H498.66V207.07H505.98V213.92L505.41 213.78Q506.22 210.38 509.22 208.43Q512.22 206.47 516.47 206.47Q520.56 206.47 523.56 208.42Q526.57 210.36 528.22 213.88Q529.87 217.39 529.87 222.14Q529.87 226.94 528.14 230.51Q526.41 234.09 523.32 236.05Q520.22 238.02 516.01 238.02ZM514.1 231.86Q517.72 231.86 519.88 229.31Q522.04 226.76 522.04 222.17Q522.04 217.61 519.86 215.12Q517.68 212.62 514.02 212.62Q510.45 212.62 508.25 215.16Q506.04 217.69 506.04 222.27Q506.04 226.82 508.25 229.34Q510.45 231.86 514.1 231.86ZM534.28 237.44V207.07H541.82V237.44ZM533.96 202.06V193.76H542.14V202.06ZM548.57 237.44V207.07H555.9V214.21H556.12V237.44ZM569.91 237.44V218.26Q569.91 215.44 568.48 214.03Q567.06 212.62 564.3 212.62Q561.91 212.62 560.06 213.7Q558.2 214.77 557.16 216.66Q556.12 218.54 556.12 221.08L555.34 213.8Q556.85 210.44 559.84 208.46Q562.83 206.47 567 206.47Q571.96 206.47 574.71 209.26Q577.46 212.05 577.46 216.69V237.44ZM597.14 250.25Q591.12 250.25 587.28 247.62Q583.44 244.99 582.7 240.54H589.85Q590.38 242.09 592.2 242.95Q594.02 243.82 596.96 243.82Q601.21 243.82 603.23 241.94Q605.26 240.06 605.26 236.25V229.68L605.77 229.8Q605.04 233.17 602.12 235.15Q599.2 237.13 594.99 237.13Q590.96 237.13 587.94 235.23Q584.92 233.33 583.26 229.92Q581.59 226.5 581.59 221.92Q581.59 217.27 583.32 213.8Q585.04 210.32 588.17 208.41Q591.3 206.49 595.47 206.49Q599.76 206.49 602.53 208.53Q605.3 210.58 605.93 214.21L605.47 214.27V207.07H612.8V236.17Q612.8 242.7 608.61 246.48Q604.42 250.25 597.14 250.25ZM597.45 231.19Q601.05 231.19 603.23 228.71Q605.41 226.23 605.41 221.76Q605.41 217.33 603.21 214.88Q601.01 212.43 597.37 212.43Q593.8 212.43 591.61 214.91Q589.41 217.39 589.41 221.86Q589.41 226.28 591.62 228.74Q593.82 231.19 597.45 231.19Z" fill="#18213F"/><path d="M188.11 449.22V475.2H183.3V449.22H173.88V445.17H197.54V449.22ZM222.53 461.99H212.55V475.2H207.73V445.17H212.55V457.95H222.53V445.17H227.35V475.2H222.53ZM240.17 475.2V445.17H258.97V449.22H244.99V457.95H258.45V461.99H244.99V471.16H258.97V475.2ZM303.75 475.2V445.17H314.98Q319.28 445.17 321.54 447.58Q323.8 449.99 323.8 454.21Q323.8 458.42 321.54 460.83Q319.28 463.24 314.98 463.24H308.57V475.2ZM308.57 459.24H314.25Q318.72 459.24 318.72 455.11V453.26Q318.72 449.17 314.25 449.17H308.57ZM340.36 475.2H335.58V445.17H346.81Q351.11 445.17 353.37 447.58Q355.63 449.99 355.63 454.21Q355.63 457.65 353.95 459.89Q352.27 462.12 349.13 462.64L356.06 475.2H350.72L344.36 463.07H340.36ZM346.12 459.2Q350.6 459.2 350.6 455.11V453.26Q350.6 449.17 346.12 449.17H340.36V459.2ZM367.24 475.2V471.54H374.3V448.83H367.24V445.17H386.17V448.83H379.12V471.54H386.17V475.2ZM405.19 475.2 396.71 445.17H401.92L405.87 460.32L408.5 470.51H408.76L411.38 460.32L415.38 445.17H420.37L411.9 475.2ZM447.34 475.2 445.06 467.2H435.51L433.23 475.2H428.33L437.11 445.17H443.69L452.46 475.2ZM440.46 450.03H440.12L436.42 463.2H444.16ZM474.62 449.22V475.2H469.8V449.22H460.38V445.17H484.04V449.22ZM494.84 475.2V445.17H513.64V449.22H499.66V457.95H513.12V461.99H499.66V471.16H513.64V475.2ZM558.03 475.2 555.88 445.17H560.1L561.17 462.64L561.64 470.34H561.99L565.39 452.44H570.16L573.56 470.34H573.91L574.38 462.64L575.5 445.17H579.54L577.39 475.2H570.94L567.88 457.82H567.54L564.48 475.2ZM595.03 475.2H590.25V445.17H601.48Q605.78 445.17 608.04 447.58Q610.3 449.99 610.3 454.21Q610.3 457.65 608.62 459.89Q606.94 462.12 603.8 462.64L610.73 475.2H605.39L599.03 463.07H595.03ZM600.79 459.2Q605.27 459.2 605.27 455.11V453.26Q605.27 449.17 600.79 449.17H595.03V459.2ZM621.91 475.2V471.54H628.97V448.83H621.91V445.17H640.84V448.83H633.79V471.54H640.84V475.2ZM665.62 449.22V475.2H660.8V449.22H651.38V445.17H675.04V449.22ZM685.58 475.2V471.54H692.64V448.83H685.58V445.17H704.51V448.83H697.45V471.54H704.51V475.2ZM721.67 452.1H721.29V475.2H717.07V445.17H723.27L732.08 468.27H732.47V445.17H736.69V475.2H730.49ZM764.31 471.07H764Q763.62 471.97 763.08 472.81Q762.54 473.65 761.75 474.3Q760.95 474.94 759.83 475.33Q758.71 475.72 757.25 475.72Q752.56 475.72 750.2 471.72Q747.83 467.71 747.83 460.4Q747.83 452.74 750.54 448.7Q753.25 444.66 758.84 444.66Q761.04 444.66 762.69 445.26Q764.35 445.86 765.51 446.87Q766.67 447.88 767.45 449.24Q768.22 450.59 768.69 452.1L764.35 453.56Q764 452.57 763.57 451.69Q763.14 450.81 762.52 450.12Q761.9 449.43 761.01 449.04Q760.13 448.66 758.88 448.66Q755.74 448.66 754.35 451.09Q752.95 453.52 752.95 457.65V462.42Q752.95 464.49 753.25 466.21Q753.55 467.93 754.26 469.16Q754.97 470.38 756.11 471.07Q757.25 471.76 758.88 471.76Q761.51 471.76 762.91 470.19Q764.31 468.62 764.31 466.17V463.46H758.5V459.84H768.69V475.2H764.31ZM829.35 475.2 827.07 467.2H817.52L815.24 475.2H810.34L819.11 445.17H825.69L834.47 475.2ZM822.47 450.03H822.12L818.42 463.2H826.17ZM853.96 475.72Q850.04 475.72 847.37 474.34Q844.71 472.96 842.99 470.68L846.08 467.71Q847.8 469.78 849.74 470.75Q851.68 471.72 854.13 471.72Q856.97 471.72 858.49 470.42Q860.02 469.13 860.02 466.73Q860.02 464.79 858.9 463.74Q857.78 462.68 855.07 462.21L851.8 461.69Q849.65 461.35 848.19 460.55Q846.73 459.76 845.83 458.66Q844.92 457.56 844.51 456.21Q844.1 454.85 844.1 453.35Q844.1 449.09 846.86 446.87Q849.61 444.66 854.43 444.66Q858 444.66 860.52 445.8Q863.03 446.94 864.58 449L861.57 452.01Q860.32 450.51 858.62 449.58Q856.92 448.66 854.43 448.66Q851.76 448.66 850.36 449.8Q848.97 450.94 848.97 453.13Q848.97 454.98 850.06 456.04Q851.16 457.09 853.96 457.56L857.14 458.12Q861.18 458.85 863.03 461.07Q864.88 463.28 864.88 466.47Q864.88 468.53 864.17 470.25Q863.46 471.97 862.06 473.18Q860.67 474.38 858.62 475.05Q856.58 475.72 853.96 475.72ZM885.79 475.72Q881.87 475.72 879.21 474.34Q876.54 472.96 874.82 470.68L877.92 467.71Q879.64 469.78 881.57 470.75Q883.51 471.72 885.96 471.72Q888.8 471.72 890.33 470.42Q891.86 469.13 891.86 466.73Q891.86 464.79 890.74 463.74Q889.62 462.68 886.91 462.21L883.64 461.69Q881.49 461.35 880.03 460.55Q878.56 459.76 877.66 458.66Q876.76 457.56 876.35 456.21Q875.94 454.85 875.94 453.35Q875.94 449.09 878.69 446.87Q881.44 444.66 886.26 444.66Q889.83 444.66 892.35 445.8Q894.87 446.94 896.42 449L893.4 452.01Q892.16 450.51 890.46 449.58Q888.76 448.66 886.26 448.66Q883.6 448.66 882.2 449.8Q880.8 450.94 880.8 453.13Q880.8 454.98 881.9 456.04Q882.99 457.09 885.79 457.56L888.97 458.12Q893.02 458.85 894.87 461.07Q896.72 463.28 896.72 466.47Q896.72 468.53 896.01 470.25Q895.3 471.97 893.9 473.18Q892.5 474.38 890.46 475.05Q888.41 475.72 885.79 475.72ZM908.42 475.2V471.54H915.47V448.83H908.42V445.17H927.35V448.83H920.29V471.54H927.35V475.2ZM949.46 475.72Q945.54 475.72 942.88 474.34Q940.21 472.96 938.49 470.68L941.58 467.71Q943.31 469.78 945.24 470.75Q947.18 471.72 949.63 471.72Q952.47 471.72 954 470.42Q955.52 469.13 955.52 466.73Q955.52 464.79 954.4 463.74Q953.29 462.68 950.58 462.21L947.31 461.69Q945.16 461.35 943.69 460.55Q942.23 459.76 941.33 458.66Q940.42 457.56 940.01 456.21Q939.61 454.85 939.61 453.35Q939.61 449.09 942.36 446.87Q945.11 444.66 949.93 444.66Q953.5 444.66 956.02 445.8Q958.53 446.94 960.08 449L957.07 452.01Q955.82 450.51 954.12 449.58Q952.43 448.66 949.93 448.66Q947.26 448.66 945.87 449.8Q944.47 450.94 944.47 453.13Q944.47 454.98 945.56 456.04Q946.66 457.09 949.46 457.56L952.64 458.12Q956.68 458.85 958.53 461.07Q960.38 463.28 960.38 466.47Q960.38 468.53 959.67 470.25Q958.96 471.97 957.57 473.18Q956.17 474.38 954.12 475.05Q952.08 475.72 949.46 475.72ZM983.96 449.22V475.2H979.14V449.22H969.72V445.17H993.38V449.22ZM1020.35 475.2 1018.07 467.2H1008.52L1006.24 475.2H1001.34L1010.11 445.17H1016.7L1025.47 475.2ZM1013.47 450.03H1013.12L1009.42 463.2H1017.17ZM1040.01 452.1H1039.62V475.2H1035.41V445.17H1041.6L1050.42 468.27H1050.81V445.17H1055.02V475.2H1048.83ZM1079.46 449.22V475.2H1074.64V449.22H1065.22V445.17H1088.88V449.22ZM1131.51 475.2V445.17H1150.83V449.22H1136.33V457.95H1149.49V461.99H1136.33V475.2ZM1172.55 475.72Q1169.71 475.72 1167.63 474.66Q1165.54 473.61 1164.18 471.63Q1162.83 469.65 1162.18 466.77Q1161.54 463.89 1161.54 460.19Q1161.54 456.53 1162.18 453.63Q1162.83 450.72 1164.18 448.74Q1165.54 446.76 1167.63 445.71Q1169.71 444.66 1172.55 444.66Q1175.39 444.66 1177.48 445.71Q1179.56 446.76 1180.92 448.74Q1182.27 450.72 1182.92 453.63Q1183.56 456.53 1183.56 460.19Q1183.56 463.89 1182.92 466.77Q1182.27 469.65 1180.92 471.63Q1179.56 473.61 1177.48 474.66Q1175.39 475.72 1172.55 475.72ZM1172.55 471.72Q1175.78 471.72 1177.11 469.28Q1178.44 466.85 1178.44 462.68V457.65Q1178.44 453.52 1177.11 451.09Q1175.78 448.66 1172.55 448.66Q1169.32 448.66 1167.99 451.09Q1166.66 453.52 1166.66 457.65V462.72Q1166.66 466.85 1167.99 469.28Q1169.32 471.72 1172.55 471.72ZM1199.87 475.2H1195.09V445.17H1206.32Q1210.62 445.17 1212.88 447.58Q1215.14 449.99 1215.14 454.21Q1215.14 457.65 1213.46 459.89Q1211.78 462.12 1208.64 462.64L1215.57 475.2H1210.24L1203.87 463.07H1199.87ZM1205.63 459.2Q1210.11 459.2 1210.11 455.11V453.26Q1210.11 449.17 1205.63 449.17H1199.87V459.2ZM1274.29 460.83 1274.42 451.8H1274.08L1268.05 467.24L1262.03 451.8H1261.69L1261.81 460.83V475.2H1257.56V445.17H1263.45L1268.05 457.09H1268.35L1273 445.17H1278.55V475.2H1274.29ZM1306.86 475.2 1304.58 467.2H1295.03L1292.75 475.2H1287.84L1296.62 445.17H1303.2L1311.97 475.2ZM1299.97 450.03H1299.63L1295.93 463.2H1303.67ZM1332.58 475.72Q1326.86 475.72 1324.08 471.67Q1321.31 467.63 1321.31 460.19Q1321.31 452.74 1324.08 448.7Q1326.86 444.66 1332.58 444.66Q1334.77 444.66 1336.39 445.24Q1338 445.82 1339.16 446.83Q1340.32 447.84 1341.12 449.2Q1341.92 450.55 1342.43 452.1L1338.09 453.56Q1337.74 452.53 1337.31 451.63Q1336.88 450.72 1336.24 450.08Q1335.59 449.43 1334.71 449.04Q1333.83 448.66 1332.54 448.66Q1329.35 448.66 1327.89 451.09Q1326.43 453.52 1326.43 457.65V462.72Q1326.43 466.85 1327.89 469.28Q1329.35 471.72 1332.54 471.72Q1333.83 471.72 1334.71 471.33Q1335.59 470.94 1336.24 470.3Q1336.88 469.65 1337.31 468.75Q1337.74 467.84 1338.09 466.81L1342.43 468.27Q1341.92 469.82 1341.12 471.18Q1340.32 472.53 1339.16 473.54Q1338 474.55 1336.39 475.14Q1334.77 475.72 1332.58 475.72Z" fill="#0A6F84"/><path d="M242.97 700.55Q227.87 700.55 214.8 695.84Q201.73 691.12 193.05 680.86Q184.37 670.6 182.03 654.31H211.9Q213.92 661.45 218.84 665.66Q223.76 669.86 230.64 671.63Q237.51 673.39 244.94 673.39Q250.76 673.39 256.26 671.95Q261.76 670.52 265.39 667.03Q269.02 663.54 269.02 657.59Q269.02 653.12 267.03 650.31Q265.04 647.5 261.45 645.67Q257.86 643.85 252.73 642.57Q248.59 641.34 243.97 640.44Q239.36 639.54 234.92 638.39Q230.49 637.24 226.39 635.6Q218.55 633.42 211.33 630.45Q204.11 627.47 198.65 622.92Q193.19 618.37 189.99 611.39Q186.79 604.41 186.79 594.44Q186.79 583.86 190.4 576.41Q194.01 568.96 200.05 564.18Q206.08 559.4 213.5 556.77Q220.93 554.15 228.6 553.06Q236.28 551.97 243.01 551.97Q257.12 551.97 268.41 556.88Q279.69 561.78 286.85 571.67Q294.01 581.56 295.12 596.54H266.6Q265.82 590.38 262.09 586.5Q258.35 582.63 252.67 580.76Q246.99 578.89 240.05 578.89Q235.54 578.89 231.23 579.67Q226.92 580.45 223.58 582.21Q220.23 583.98 218.22 586.85Q216.21 589.72 216.21 593.91Q216.21 598.01 218.53 601.01Q220.85 604 225.22 606.1Q229.59 608.19 235.66 610.04Q241.69 612.17 248.47 613.38Q255.24 614.59 261.39 616.56Q269.27 618.61 276.06 621.44Q282.85 624.27 287.92 628.5Q292.99 632.73 295.86 639.19Q298.73 645.65 298.73 655.05Q298.73 667.56 294.13 676.24Q289.54 684.92 281.62 690.3Q273.7 695.67 263.69 698.11Q253.68 700.55 242.97 700.55ZM346.62 700.39Q339.11 700.39 332.3 698.38Q325.48 696.37 320.17 692.31Q314.86 688.24 311.74 682.13Q308.62 676.02 308.62 667.77Q308.62 656.69 313.11 649.96Q317.61 643.23 325.26 639.78Q332.91 636.34 342.78 635.13Q352.65 633.92 363.32 633.92H378.99Q378.99 627.88 376.86 623.33Q374.72 618.78 370.39 616.15Q366.07 613.52 359.34 613.52Q354.95 613.52 351.07 614.63Q347.19 615.74 344.56 617.85Q341.94 619.97 341.04 623.25H311.9Q313.22 614.26 317.67 607.8Q322.12 601.34 328.85 597.21Q335.58 593.09 343.66 591.08Q351.75 589.07 360.32 589.07Q376.16 589.07 386.34 595.08Q396.51 601.09 401.5 612.6Q406.48 624.11 406.48 640.69V698.91H380.59L380.18 684.92Q375.18 692.18 368.63 695.47Q362.09 698.75 356.16 699.57Q350.23 700.39 346.62 700.39ZM353.18 677.62Q360.36 677.62 366.25 674.72Q372.14 671.83 375.69 666.87Q379.24 661.9 379.24 655.79V653.16H355.11Q352.16 653.16 348.93 653.63Q345.71 654.1 343.07 655.34Q340.42 656.57 338.78 658.91Q337.14 661.24 337.14 665.18Q337.14 669.37 339.33 672.1Q341.53 674.83 345.22 676.22Q348.91 677.62 353.18 677.62ZM469.02 748.81Q456.83 748.81 445.01 745.51Q433.2 742.2 422.73 734.45L432.42 711.35Q438.94 716.23 447.93 719.49Q456.91 722.75 467.83 722.75Q483.79 722.75 490.42 715.1Q497.04 707.45 497.04 693.58V687.92Q493.47 692.47 488.26 695.26Q483.05 698.05 477.2 699.3Q471.36 700.55 465.41 700.55Q449.77 700.55 440.36 694.01Q430.94 687.46 426.73 676.06Q422.53 664.65 422.53 650.12V590.79H451.29V644.26Q451.29 649.43 451.97 654.78Q452.65 660.14 454.78 664.63Q456.91 669.12 461.34 671.85Q465.78 674.58 473.29 674.58Q483.13 674.58 488.18 669.76Q493.23 664.94 494.99 657.51Q496.76 650.08 496.76 642.08V590.79H525.52V683.4Q525.52 698.17 522.71 710.22Q519.9 722.26 513.44 730.88Q506.97 739.49 496.1 744.15Q485.23 748.81 469.02 748.81ZM591.54 698.91V590.79H620.31V698.91ZM605.95 579.96Q597.9 579.96 593 575.14Q588.1 570.32 588.1 562.6Q588.1 554.76 593.23 549.8Q598.35 544.83 606.07 544.83Q613.37 544.83 618.62 549.66Q623.88 554.48 623.88 562.48Q623.88 570.32 618.85 575.14Q613.82 579.96 605.95 579.96ZM680.05 700.27Q661.79 700.27 653.01 690.05Q644.23 679.83 644.23 662.07V616.4H628.06V590.79H644.23V561.58H672.99V590.79H705.74V616.4H672.99V656.12Q672.99 661.29 674.33 665.2Q675.66 669.12 678.88 671.3Q682.1 673.47 687.56 673.55Q692.53 673.55 695.93 671.97Q699.34 670.4 701.55 668.51L710.5 690.71Q706.27 694.19 701 696.35Q695.73 698.5 690.37 699.38Q685.02 700.27 680.05 700.27Z" fill="#18213F"/><path d="M817.96 748.93Q805.41 748.93 794.68 744.93Q783.95 740.93 776.58 732.33Q769.22 723.74 766.59 710.2H795.97Q797.24 714.38 800.46 717.21Q803.68 720.05 808.28 721.4Q812.88 722.75 818 722.75Q827.48 722.75 832.82 718.77Q838.15 714.79 840.31 708.08Q842.46 701.38 842.46 693.5V685.54Q838.73 691.45 833.17 694.6Q827.61 697.76 821.57 699.02Q815.54 700.27 809.96 700.27Q792.93 700.27 782.28 692.74Q771.64 685.21 766.73 672.8Q761.83 660.38 761.83 645.9Q761.83 630.18 767.39 617.26Q772.95 604.33 784.05 596.7Q795.15 589.07 811.77 589.07Q821.7 589.07 829.56 592.31Q837.41 595.55 842.95 601.75L845.25 590.79H871.59V685.17Q871.59 704.9 866.46 719.18Q861.34 733.46 849.56 741.2Q837.78 748.93 817.96 748.93ZM816.36 674.54Q825.39 674.54 831.24 670.42Q837.08 666.29 840 659.4Q842.91 652.5 842.91 644.46Q842.91 636.13 840.04 629.46Q837.17 622.8 831.44 618.84Q825.72 614.88 816.65 614.88Q806.8 614.88 801.08 619.41Q795.35 623.95 792.91 630.88Q790.47 637.81 790.47 645.32Q790.47 653.12 793.02 659.81Q795.56 666.5 801.26 670.52Q806.97 674.54 816.36 674.54ZM937.49 700.39Q921.08 700.39 908.79 693.74Q896.5 687.1 889.69 674.64Q882.88 662.19 882.88 645.08Q882.88 627.64 889.79 615.1Q896.71 602.57 908.93 595.76Q921.16 588.94 937.29 588.94Q953.58 588.94 965.7 595.88Q977.83 602.81 984.58 615.41Q991.33 628.01 991.33 645.45Q991.33 662.43 984.72 674.83Q978.12 687.22 966.05 693.8Q953.99 700.39 937.49 700.39ZM937.12 674.05Q946.56 674.05 952.26 669.94Q957.97 665.84 960.51 659.21Q963.06 652.59 963.06 645.2Q963.06 637.81 960.51 630.96Q957.97 624.11 952.33 619.76Q946.68 615.41 937.12 615.41Q927.77 615.41 922 619.76Q916.24 624.11 913.69 630.9Q911.15 637.69 911.15 645.2Q911.15 652.71 913.75 659.34Q916.36 665.96 922.06 670.01Q927.77 674.05 937.12 674.05ZM1053.21 700.39Q1036.79 700.39 1024.5 693.74Q1012.21 687.1 1005.4 674.64Q998.59 662.19 998.59 645.08Q998.59 627.64 1005.5 615.1Q1012.42 602.57 1024.65 595.76Q1036.87 588.94 1053 588.94Q1069.29 588.94 1081.42 595.88Q1093.54 602.81 1100.29 615.41Q1107.04 628.01 1107.04 645.45Q1107.04 662.43 1100.44 674.83Q1093.83 687.22 1081.76 693.8Q1069.7 700.39 1053.21 700.39ZM1052.84 674.05Q1062.27 674.05 1067.98 669.94Q1073.68 665.84 1076.23 659.21Q1078.77 652.59 1078.77 645.2Q1078.77 637.81 1076.23 630.96Q1073.68 624.11 1068.04 619.76Q1062.4 615.41 1052.84 615.41Q1043.48 615.41 1037.72 619.76Q1031.95 624.11 1029.41 630.9Q1026.86 637.69 1026.86 645.2Q1026.86 652.71 1029.47 659.34Q1032.07 665.96 1037.78 670.01Q1043.48 674.05 1052.84 674.05ZM1162.93 700.39Q1146.47 700.39 1135.7 692.86Q1124.93 685.33 1119.62 672.73Q1114.3 660.14 1114.3 644.79Q1114.3 628.58 1120.05 615.96Q1125.79 603.35 1137.08 596.15Q1148.36 588.94 1165.1 588.94Q1170.97 588.94 1176.57 590.24Q1182.17 591.53 1187.06 594.09Q1191.94 596.66 1195.3 600.76V553.74H1224.07V698.91H1196.12L1195.8 686.77Q1191.98 691.45 1186.83 694.44Q1181.68 697.44 1175.65 698.91Q1169.62 700.39 1162.93 700.39ZM1168.71 674.42Q1177.99 674.42 1183.83 670.17Q1189.68 665.92 1192.53 659.09Q1195.39 652.26 1195.39 644.59Q1195.39 636.62 1192.57 629.96Q1189.76 623.29 1183.92 619.21Q1178.07 615.12 1168.76 615.12Q1159.15 615.12 1153.49 619.47Q1147.83 623.82 1145.39 630.74Q1142.95 637.65 1142.95 645.36Q1142.95 651.11 1144.32 656.34Q1145.69 661.57 1148.75 665.66Q1151.81 669.74 1156.73 672.08Q1161.66 674.42 1168.71 674.42Z" fill="#8A91A6"/><rect x="754.65" y="630.7" width="473.52" height="10.26" fill="#D7784F"/><path d="" fill="#18213F"/><rect x="1271.91" y="615.33" width="380.10" height="90.92" fill="#D9F8FF"/><path d="M1313.23 698.91 1279.22 590.79H1310.73L1330.67 666.09L1352.05 590.79H1384.38L1405.72 666.09L1425.38 590.79H1456.36L1422.34 698.91H1389.31L1367.68 625.83L1346.31 698.91ZM1510.19 700.39Q1493.33 700.39 1481.37 693.56Q1469.4 686.73 1463.06 674.33Q1456.73 661.94 1456.73 645.32Q1456.73 628.62 1463.25 615.96Q1469.77 603.31 1481.8 596.13Q1493.82 588.94 1510.36 588.94Q1522.58 588.94 1531.9 593.09Q1541.21 597.23 1547.65 604.62Q1554.1 612 1557.32 621.73Q1560.54 631.45 1560.37 642.7Q1560.29 645.53 1560.07 648.18Q1559.84 650.82 1559.27 653.65H1485.33Q1485.9 659.77 1488.75 664.9Q1491.6 670.03 1496.81 673.02Q1502.03 676.02 1509.86 676.02Q1514.95 676.02 1519.28 674.81Q1523.61 673.6 1526.73 671.17Q1529.85 668.75 1530.95 665.43H1559.39Q1556.68 677.62 1549.36 685.39Q1542.03 693.17 1531.8 696.78Q1521.56 700.39 1510.19 700.39ZM1532.8 633.42Q1532.72 627.88 1530.11 623.06Q1527.51 618.24 1522.44 615.33Q1517.37 612.42 1509.74 612.42Q1501.9 612.42 1496.69 615.49Q1491.48 618.57 1488.83 623.39Q1486.19 628.21 1485.86 633.42ZM1571.62 698.91V553.74H1600.38V698.91ZM1615.93 698.91V553.74H1644.7V698.91Z" fill="#18213F"/><path d="M1677.85 701.66Q1670.55 701.66 1665.4 697.07Q1660.25 692.47 1660.25 684.06Q1660.25 675.52 1665.52 670.62Q1670.79 665.72 1677.98 665.72Q1685.16 665.72 1690.24 670.56Q1695.33 675.4 1695.33 683.94Q1695.33 692.47 1690.24 697.07Q1685.16 701.66 1677.85 701.66Z" fill="#18213F"/><path d="M188.19 912.29V767.11H217.61V827.35H238.08L275.88 767.11H309.44L262.74 837.65L309.36 912.29H275.05L239.23 854.39H217.61V912.29ZM364.14 913.76Q347.27 913.76 335.31 906.93Q323.35 900.1 317.01 887.71Q310.67 875.31 310.67 858.7Q310.67 842 317.2 829.34Q323.72 816.68 335.74 809.5Q347.77 802.32 364.3 802.32Q376.53 802.32 385.84 806.46Q395.16 810.61 401.6 817.99Q408.04 825.38 411.26 835.1Q414.48 844.83 414.32 856.07Q414.24 858.9 414.01 861.55Q413.79 864.19 413.21 867.03H339.27Q339.85 873.14 342.7 878.27Q345.55 883.4 350.76 886.39Q355.97 889.39 363.81 889.39Q368.9 889.39 373.23 888.18Q377.56 886.97 380.67 884.55Q383.79 882.13 384.9 878.8H413.34Q410.63 890.99 403.3 898.76Q395.98 906.54 385.74 910.15Q375.5 913.76 364.14 913.76ZM386.75 846.8Q386.66 841.26 384.06 836.44Q381.45 831.61 376.39 828.7Q371.32 825.79 363.69 825.79Q355.85 825.79 350.64 828.86Q345.43 831.94 342.78 836.76Q340.13 841.59 339.8 846.8ZM474.93 913.76Q458.06 913.76 446.1 906.93Q434.14 900.1 427.8 887.71Q421.46 875.31 421.46 858.7Q421.46 842 427.98 829.34Q434.51 816.68 446.53 809.5Q458.55 802.32 475.09 802.32Q487.32 802.32 496.63 806.46Q505.95 810.61 512.39 817.99Q518.83 825.38 522.05 835.1Q525.27 844.83 525.11 856.07Q525.03 858.9 524.8 861.55Q524.58 864.19 524 867.03H450.06Q450.64 873.14 453.49 878.27Q456.34 883.4 461.55 886.39Q466.76 889.39 474.6 889.39Q479.69 889.39 484.02 888.18Q488.34 886.97 491.46 884.55Q494.58 882.13 495.69 878.8H524.13Q521.42 890.99 514.09 898.76Q506.77 906.54 496.53 910.15Q486.29 913.76 474.93 913.76ZM497.54 846.8Q497.45 841.26 494.85 836.44Q492.24 831.61 487.18 828.7Q482.11 825.79 474.48 825.79Q466.64 825.79 461.43 828.86Q456.22 831.94 453.57 836.76Q450.92 841.59 450.59 846.8ZM536.35 952.62V804.16H563.19L564.62 817.79Q571.27 809.62 579.77 805.97Q588.26 802.32 598.6 802.32Q614.52 802.32 624.98 809.72Q635.45 817.13 640.66 829.71Q645.87 842.28 645.87 857.96Q645.87 873.88 640.43 886.52Q635 899.15 624.14 906.46Q613.29 913.76 597.16 913.76Q590.07 913.76 583.93 912.14Q577.8 910.52 573.06 907.69Q568.32 904.86 565.12 901.33V952.62ZM592.16 887.79Q601.84 887.79 607.34 883.52Q612.84 879.25 615.16 872.57Q617.48 865.88 617.48 858.7Q617.48 850.94 614.97 844.01Q612.47 837.07 606.83 832.78Q601.19 828.5 591.62 828.5Q582.93 828.5 576.98 832.7Q571.03 836.91 567.99 843.7Q564.95 850.49 564.95 858.29Q564.95 866.12 567.85 872.87Q570.74 879.62 576.79 883.71Q582.84 887.79 592.16 887.79ZM707.87 912.29V804.16H736.64V912.29ZM722.27 793.33Q714.23 793.33 709.33 788.51Q704.42 783.69 704.42 775.97Q704.42 768.14 709.55 763.17Q714.68 758.21 722.4 758.21Q729.7 758.21 734.95 763.03Q740.21 767.85 740.21 775.85Q740.21 783.69 735.18 788.51Q730.15 793.33 722.27 793.33ZM796.38 913.64Q778.12 913.64 769.34 903.42Q760.56 893.2 760.56 875.44V829.77H744.39V804.16H760.56V774.95H789.32V804.16H822.07V829.77H789.32V869.49Q789.32 874.66 790.66 878.58Q791.99 882.5 795.21 884.67Q798.43 886.84 803.89 886.93Q808.85 886.93 812.26 885.35Q815.67 883.77 817.88 881.88L826.83 904.08Q822.6 907.57 817.33 909.72Q812.05 911.87 806.7 912.76Q801.34 913.64 796.38 913.64ZM929.61 962.18Q917.43 962.18 905.61 958.88Q893.79 955.58 883.33 947.82L893.01 924.72Q899.54 929.6 908.52 932.86Q917.51 936.13 928.42 936.13Q944.39 936.13 951.01 928.47Q957.64 920.82 957.64 906.95V901.29Q954.07 905.84 948.86 908.63Q943.65 911.42 937.8 912.67Q931.95 913.93 926 913.93Q910.37 913.93 900.95 907.38Q891.54 900.84 887.33 889.43Q883.12 878.02 883.12 863.5V804.16H911.89V857.63Q911.89 862.8 912.57 868.15Q913.24 873.51 915.38 878Q917.51 882.5 921.94 885.22Q926.37 887.95 933.88 887.95Q943.73 887.95 948.78 883.13Q953.82 878.31 955.59 870.88Q957.35 863.46 957.35 855.45V804.16H986.12V896.77Q986.12 911.55 983.31 923.59Q980.5 935.63 974.03 944.25Q967.57 952.87 956.7 957.52Q945.82 962.18 929.61 962.18ZM1051.97 913.76Q1035.56 913.76 1023.27 907.11Q1010.98 900.47 1004.17 888.01Q997.36 875.56 997.36 858.45Q997.36 841.01 1004.27 828.48Q1011.19 815.94 1023.42 809.13Q1035.64 802.32 1051.77 802.32Q1068.06 802.32 1080.19 809.25Q1092.31 816.19 1099.06 828.78Q1105.81 841.38 1105.81 858.82Q1105.81 875.81 1099.2 888.2Q1092.6 900.59 1080.53 907.18Q1068.47 913.76 1051.97 913.76ZM1051.61 887.42Q1061.04 887.42 1066.75 883.32Q1072.45 879.21 1074.99 872.59Q1077.54 865.96 1077.54 858.57Q1077.54 851.19 1074.99 844.33Q1072.45 837.48 1066.81 833.13Q1061.17 828.78 1051.61 828.78Q1042.25 828.78 1036.48 833.13Q1030.72 837.48 1028.18 844.27Q1025.63 851.06 1025.63 858.57Q1025.63 866.08 1028.24 872.71Q1030.84 879.34 1036.55 883.38Q1042.25 887.42 1051.61 887.42ZM1166.25 913.76Q1142.41 913.76 1129.59 901.55Q1116.77 889.35 1116.77 864.6V804.16H1145.53V862.55Q1145.53 870.02 1147.62 875.7Q1149.72 881.39 1154.31 884.59Q1158.91 887.79 1166.25 887.79Q1174.25 887.79 1178.58 884.34Q1182.91 880.89 1184.53 875.09Q1186.15 869.28 1186.15 862.55V804.16H1214.92V864.6Q1214.92 890.33 1202.01 902.05Q1189.11 913.76 1166.25 913.76ZM1230.02 912.29V804.16H1255.83L1257.63 817.05Q1261.74 810.93 1266.87 807.77Q1271.99 804.61 1277.62 803.47Q1283.24 802.32 1288.82 802.32Q1291.49 802.32 1293.74 802.38Q1296 802.44 1297.07 802.56V830.18H1290.34Q1280.69 830.18 1273.53 833.52Q1266.37 836.87 1262.58 843.78Q1258.78 850.69 1258.78 861.65V912.29ZM1343.76 913.76Q1336.01 913.76 1328.09 912.08Q1320.17 910.4 1313.34 906.42Q1306.5 902.44 1301.83 895.56Q1297.15 888.69 1295.67 878.39H1324.76Q1326.08 882.21 1329.22 884.79Q1332.35 887.38 1336.6 888.63Q1340.85 889.88 1345.2 889.88Q1347.99 889.88 1350.88 889.47Q1353.77 889.06 1356.24 887.89Q1358.7 886.72 1360.15 884.75Q1361.61 882.78 1361.61 879.7Q1361.61 876.59 1359.83 874.78Q1358.04 872.98 1354.94 871.85Q1351.84 870.72 1347.62 869.9Q1343.19 868.75 1338.49 867.95Q1333.79 867.15 1329.24 866.08Q1321.48 864.15 1314.5 860.77Q1307.53 857.38 1303.18 851.23Q1298.83 845.07 1298.83 834.9Q1298.83 826.03 1302.56 819.82Q1306.3 813.6 1312.66 809.74Q1319.02 805.89 1326.88 804.1Q1334.73 802.32 1342.86 802.32Q1354.02 802.32 1363.4 805.89Q1372.77 809.46 1378.99 816.97Q1385.2 824.47 1386.6 836.37H1359.07Q1358.25 831.78 1353.55 828.99Q1348.85 826.2 1341.83 826.2Q1339.29 826.2 1336.6 826.65Q1333.91 827.1 1331.64 828.13Q1329.36 829.15 1327.94 830.96Q1326.53 832.76 1326.53 835.47Q1326.53 837.77 1327.84 839.68Q1329.15 841.59 1331.8 842.88Q1334.45 844.17 1338.14 845.03Q1344.7 846.47 1351.84 847.82Q1358.98 849.18 1364.65 850.69Q1371.34 852.38 1377.04 855.58Q1382.74 858.78 1386.25 864.4Q1389.76 870.02 1389.76 879.13Q1389.76 889.27 1385.66 895.97Q1381.55 902.68 1374.76 906.54Q1367.97 910.4 1359.85 912.08Q1351.72 913.76 1343.76 913.76ZM1417.09 915.03Q1409.78 915.03 1404.63 910.44Q1399.48 905.84 1399.48 897.43Q1399.48 888.9 1404.76 883.99Q1410.03 879.09 1417.21 879.09Q1424.39 879.09 1429.48 883.93Q1434.57 888.77 1434.57 897.31Q1434.57 905.84 1429.48 910.44Q1424.39 915.03 1417.09 915.03Z" fill="#18213F"/><path d="M177.5 1085.09V1057.24H181.6V1063.79H181.87V1085.09ZM196.29 1085.09V1066.63Q196.29 1063.46 194.87 1061.99Q193.45 1060.51 190.77 1060.51Q188.26 1060.51 186.24 1061.72Q184.22 1062.92 183.05 1065.05Q181.87 1067.18 181.87 1070.02L181.16 1063.41Q182.58 1060.3 185.42 1058.49Q188.26 1056.69 191.59 1056.69Q195.63 1056.69 198.14 1059.07Q200.65 1061.44 200.65 1065.48V1085.09ZM215.07 1085.09V1066.63Q215.07 1063.46 213.65 1061.99Q212.23 1060.51 209.55 1060.51Q207.04 1060.51 205.02 1061.72Q203 1062.92 201.83 1065.05Q200.65 1067.18 200.65 1070.02L199.56 1063.41Q200.98 1060.3 203.93 1058.49Q206.88 1056.69 210.26 1056.69Q214.3 1056.69 216.87 1059.07Q219.44 1061.44 219.44 1065.48V1085.09ZM244.77 1085.09Q244.55 1084.16 244.47 1082.96Q244.39 1081.75 244.39 1079.9H244.12V1066.58Q244.12 1063.41 242.67 1061.91Q241.22 1060.41 238 1060.41Q234.83 1060.41 232.95 1061.69Q231.07 1062.97 230.85 1065.32H226.64Q226.92 1061.28 230.03 1058.99Q233.14 1056.69 238.16 1056.69Q243.35 1056.69 245.86 1059.15Q248.37 1061.61 248.37 1066.52V1079.9Q248.37 1081.1 248.54 1082.38Q248.7 1083.67 248.98 1085.09ZM235.22 1085.63Q230.9 1085.63 228.36 1083.53Q225.82 1081.43 225.82 1077.77Q225.82 1074.11 228.34 1072.09Q230.85 1070.07 235.65 1069.25L245.37 1067.61V1071.22L236.31 1072.64Q233.25 1073.13 231.67 1074.27Q230.08 1075.42 230.08 1077.6Q230.08 1079.73 231.53 1080.83Q232.98 1081.92 235.82 1081.92Q239.47 1081.92 241.8 1080.25Q244.12 1078.59 244.12 1075.91L244.83 1079.79Q243.95 1082.57 241.41 1084.1Q238.87 1085.63 235.22 1085.63ZM267.81 1085.63Q263.99 1085.63 261.01 1083.75Q258.04 1081.86 256.32 1078.56Q254.6 1075.26 254.6 1071.05Q254.6 1066.85 256.32 1063.63Q258.04 1060.41 261.01 1058.55Q263.99 1056.69 267.76 1056.69Q270.87 1056.69 273.35 1057.89Q275.84 1059.1 277.45 1061.31Q279.06 1063.52 279.5 1066.47H275.46Q274.91 1063.79 272.94 1062.1Q270.98 1060.41 267.87 1060.41Q265.19 1060.41 263.23 1061.72Q261.26 1063.03 260.17 1065.43Q259.08 1067.83 259.08 1071.05Q259.08 1074.27 260.17 1076.73Q261.26 1079.19 263.25 1080.55Q265.25 1081.92 267.92 1081.92Q270.92 1081.92 272.94 1080.25Q274.97 1078.59 275.51 1075.91H279.55Q279.06 1078.81 277.39 1081.02Q275.73 1083.23 273.27 1084.43Q270.82 1085.63 267.81 1085.63ZM302.81 1085.63Q298.72 1085.63 295.3 1084.13Q291.89 1082.63 289.38 1079.87Q286.87 1077.11 285.48 1073.4Q284.08 1069.69 284.08 1065.27Q284.08 1059.42 286.49 1054.89Q288.89 1050.36 293.12 1047.79Q297.35 1045.23 302.76 1045.23Q308.27 1045.23 312.5 1047.79Q316.73 1050.36 319.14 1054.89Q321.54 1059.42 321.54 1065.32Q321.54 1069.74 320.15 1073.46Q318.75 1077.17 316.24 1079.9Q313.73 1082.63 310.29 1084.13Q306.85 1085.63 302.81 1085.63ZM302.76 1081.59Q306.96 1081.59 310.16 1079.49Q313.35 1077.39 315.15 1073.67Q316.95 1069.96 316.95 1065.21Q316.95 1060.51 315.18 1056.91Q313.4 1053.31 310.21 1051.29Q307.02 1049.27 302.76 1049.27Q298.5 1049.27 295.33 1051.29Q292.16 1053.31 290.42 1056.88Q288.67 1060.46 288.67 1065.21Q288.67 1070.02 290.44 1073.7Q292.22 1077.39 295.39 1079.49Q298.55 1081.59 302.76 1081.59ZM342.18 1085.58Q335.3 1085.58 331.23 1082.19Q327.16 1078.81 326.45 1072.53H330.82Q331.42 1077.06 334.26 1079.35Q337.1 1081.65 342.12 1081.65Q346.38 1081.65 348.54 1080.03Q350.7 1078.42 350.7 1075.31Q350.7 1072.64 349.22 1071.05Q347.75 1069.47 344.64 1068.43L338.03 1066.14Q333.01 1064.39 330.6 1061.91Q328.2 1059.42 328.2 1055.6Q328.2 1052.43 329.78 1050.11Q331.37 1047.79 334.26 1046.48Q337.16 1045.17 340.98 1045.17Q346.87 1045.17 350.42 1048.26Q353.97 1051.34 354.52 1057.02H350.15Q349.44 1052.93 347.23 1051.01Q345.02 1049.1 340.87 1049.1Q336.94 1049.1 334.75 1050.69Q332.57 1052.27 332.57 1055.16Q332.57 1057.62 334.1 1059.1Q335.63 1060.57 338.85 1061.66L345.89 1064.12Q350.48 1065.7 352.77 1068.4Q355.06 1071.11 355.06 1075.26Q355.06 1080.17 351.71 1082.87Q348.35 1085.58 342.18 1085.58ZM380.56 1085.09V1050.25L381.71 1050.52Q381.05 1052 379.2 1053.47Q377.34 1054.95 374.91 1056.04Q372.48 1057.13 369.92 1057.51V1053.31Q372.48 1052.87 374.83 1051.78Q377.18 1050.69 379.01 1049.13Q380.84 1047.57 381.71 1045.77H384.93V1085.09ZM410.05 1085.09V1074.71L410.16 1073.62V1051.18H411.63L395.03 1073.89L393.56 1072.09H419.77V1076.02H390.5V1072.64L410.27 1045.77H414.74V1085.09ZM450.34 1085.58Q443.46 1085.58 439.39 1082.19Q435.33 1078.81 434.62 1072.53H438.98Q439.59 1077.06 442.42 1079.35Q445.26 1081.65 450.29 1081.65Q454.55 1081.65 456.7 1080.03Q458.86 1078.42 458.86 1075.31Q458.86 1072.64 457.39 1071.05Q455.91 1069.47 452.8 1068.43L446.19 1066.14Q441.17 1064.39 438.77 1061.91Q436.36 1059.42 436.36 1055.6Q436.36 1052.43 437.95 1050.11Q439.53 1047.79 442.42 1046.48Q445.32 1045.17 449.14 1045.17Q455.04 1045.17 458.59 1048.26Q462.14 1051.34 462.68 1057.02H458.31Q457.6 1052.93 455.39 1051.01Q453.18 1049.1 449.03 1049.1Q445.1 1049.1 442.92 1050.69Q440.73 1052.27 440.73 1055.16Q440.73 1057.62 442.26 1059.1Q443.79 1060.57 447.01 1061.66L454.05 1064.12Q458.64 1065.7 460.93 1068.4Q463.23 1071.11 463.23 1075.26Q463.23 1080.17 459.87 1082.87Q456.51 1085.58 450.34 1085.58ZM481.35 1085.63Q477.26 1085.63 474.15 1083.72Q471.04 1081.81 469.32 1078.51Q467.6 1075.2 467.6 1071.05Q467.6 1066.85 469.34 1063.63Q471.09 1060.41 474.17 1058.55Q477.26 1056.69 481.35 1056.69Q485.5 1056.69 488.59 1058.55Q491.67 1060.41 493.39 1063.63Q495.11 1066.85 495.11 1071.05Q495.11 1075.2 493.39 1078.51Q491.67 1081.81 488.59 1083.72Q485.5 1085.63 481.35 1085.63ZM481.35 1081.92Q484.19 1081.92 486.27 1080.53Q488.34 1079.13 489.49 1076.68Q490.64 1074.22 490.64 1071Q490.64 1066.19 488.1 1063.3Q485.56 1060.41 481.35 1060.41Q477.21 1060.41 474.64 1063.3Q472.07 1066.19 472.07 1071Q472.07 1074.22 473.22 1076.68Q474.37 1079.13 476.47 1080.53Q478.57 1081.92 481.35 1081.92ZM501.67 1085.09V1057.24H505.76V1063.79H506.03V1085.09ZM521.6 1085.09V1066.85Q521.6 1063.68 520.01 1062.1Q518.43 1060.51 515.32 1060.51Q512.59 1060.51 510.48 1061.72Q508.38 1062.92 507.21 1065.05Q506.03 1067.18 506.03 1070.02L505.32 1063.41Q506.74 1060.3 509.67 1058.49Q512.59 1056.69 516.3 1056.69Q520.67 1056.69 523.32 1059.18Q525.96 1061.66 525.96 1065.7V1085.09ZM545.95 1085.63Q541.85 1085.63 538.74 1083.72Q535.63 1081.81 533.91 1078.51Q532.19 1075.2 532.19 1071.05Q532.19 1066.85 533.94 1063.63Q535.68 1060.41 538.77 1058.55Q541.85 1056.69 545.95 1056.69Q550.1 1056.69 553.18 1058.55Q556.27 1060.41 557.99 1063.63Q559.71 1066.85 559.71 1071.05Q559.71 1075.2 557.99 1078.51Q556.27 1081.81 553.18 1083.72Q550.1 1085.63 545.95 1085.63ZM545.95 1081.92Q548.79 1081.92 550.86 1080.53Q552.94 1079.13 554.08 1076.68Q555.23 1074.22 555.23 1071Q555.23 1066.19 552.69 1063.3Q550.15 1060.41 545.95 1060.41Q541.8 1060.41 539.23 1063.3Q536.67 1066.19 536.67 1071Q536.67 1074.22 537.81 1076.68Q538.96 1079.13 541.06 1080.53Q543.16 1081.92 545.95 1081.92ZM566.26 1085.09V1057.24H570.35V1063.79H570.63V1085.09ZM585.04 1085.09V1066.63Q585.04 1063.46 583.62 1061.99Q582.2 1060.51 579.53 1060.51Q577.01 1060.51 574.99 1061.72Q572.97 1062.92 571.8 1065.05Q570.63 1067.18 570.63 1070.02L569.92 1063.41Q571.34 1060.3 574.18 1058.49Q577.01 1056.69 580.35 1056.69Q584.39 1056.69 586.9 1059.07Q589.41 1061.44 589.41 1065.48V1085.09ZM603.82 1085.09V1066.63Q603.82 1063.46 602.4 1061.99Q600.98 1060.51 598.31 1060.51Q595.8 1060.51 593.78 1061.72Q591.76 1062.92 590.58 1065.05Q589.41 1067.18 589.41 1070.02L588.32 1063.41Q589.74 1060.3 592.69 1058.49Q595.63 1056.69 599.02 1056.69Q603.06 1056.69 605.63 1059.07Q608.19 1061.44 608.19 1065.48V1085.09ZM633.53 1085.09Q633.31 1084.16 633.23 1082.96Q633.14 1081.75 633.14 1079.9H632.87V1066.58Q632.87 1063.41 631.42 1061.91Q629.98 1060.41 626.76 1060.41Q623.59 1060.41 621.71 1061.69Q619.82 1062.97 619.6 1065.32H615.4Q615.67 1061.28 618.78 1058.99Q621.9 1056.69 626.92 1056.69Q632.11 1056.69 634.62 1059.15Q637.13 1061.61 637.13 1066.52V1079.9Q637.13 1081.1 637.29 1082.38Q637.46 1083.67 637.73 1085.09ZM623.97 1085.63Q619.66 1085.63 617.12 1083.53Q614.58 1081.43 614.58 1077.77Q614.58 1074.11 617.09 1072.09Q619.6 1070.07 624.41 1069.25L634.13 1067.61V1071.22L625.06 1072.64Q622.01 1073.13 620.42 1074.27Q618.84 1075.42 618.84 1077.6Q618.84 1079.73 620.29 1080.83Q621.73 1081.92 624.57 1081.92Q628.23 1081.92 630.55 1080.25Q632.87 1078.59 632.87 1075.91L633.58 1079.79Q632.71 1082.57 630.17 1084.1Q627.63 1085.63 623.97 1085.63ZM668.03 1085.63Q663.94 1085.63 660.83 1083.72Q657.71 1081.81 655.99 1078.51Q654.27 1075.2 654.27 1071.05Q654.27 1066.85 656.02 1063.63Q657.77 1060.41 660.85 1058.55Q663.94 1056.69 668.03 1056.69Q672.18 1056.69 675.27 1058.55Q678.35 1060.41 680.07 1063.63Q681.79 1066.85 681.79 1071.05Q681.79 1075.2 680.07 1078.51Q678.35 1081.81 675.27 1083.72Q672.18 1085.63 668.03 1085.63ZM668.03 1081.92Q670.87 1081.92 672.95 1080.53Q675.02 1079.13 676.17 1076.68Q677.32 1074.22 677.32 1071Q677.32 1066.19 674.78 1063.3Q672.24 1060.41 668.03 1060.41Q663.88 1060.41 661.32 1063.3Q658.75 1066.19 658.75 1071Q658.75 1074.22 659.9 1076.68Q661.05 1079.13 663.15 1080.53Q665.25 1081.92 668.03 1081.92ZM688.35 1085.09V1057.24H692.44V1064.34H692.71V1085.09ZM692.71 1070.56 692 1063.95Q692.99 1060.41 695.5 1058.55Q698.01 1056.69 701.29 1056.69Q702.65 1056.69 703.14 1056.91V1061.12Q702.87 1061.01 702.38 1060.98Q701.89 1060.95 701.18 1060.95Q697.03 1060.95 694.87 1063.44Q692.71 1065.92 692.71 1070.56ZM719.74 1085.09V1045.77H724.11V1085.09ZM749.93 1085.09Q749.72 1084.16 749.63 1082.96Q749.55 1081.75 749.55 1079.9H749.28V1066.58Q749.28 1063.41 747.83 1061.91Q746.39 1060.41 743.16 1060.41Q740 1060.41 738.11 1061.69Q736.23 1062.97 736.01 1065.32H731.81Q732.08 1061.28 735.19 1058.99Q738.3 1056.69 743.33 1056.69Q748.52 1056.69 751.03 1059.15Q753.54 1061.61 753.54 1066.52V1079.9Q753.54 1081.1 753.7 1082.38Q753.87 1083.67 754.14 1085.09ZM740.38 1085.63Q736.07 1085.63 733.53 1083.53Q730.99 1081.43 730.99 1077.77Q730.99 1074.11 733.5 1072.09Q736.01 1070.07 740.82 1069.25L750.54 1067.61V1071.22L741.47 1072.64Q738.41 1073.13 736.83 1074.27Q735.25 1075.42 735.25 1077.6Q735.25 1079.73 736.69 1080.83Q738.14 1081.92 740.98 1081.92Q744.64 1081.92 746.96 1080.25Q749.28 1078.59 749.28 1075.91L749.99 1079.79Q749.12 1082.57 746.58 1084.1Q744.04 1085.63 740.38 1085.63ZM772.32 1085.58Q767.68 1085.58 765.58 1083.47Q763.48 1081.37 763.48 1077.39V1050.74L767.84 1049.1V1077.33Q767.84 1079.68 769.04 1080.77Q770.25 1081.86 772.98 1081.86Q774.07 1081.86 774.86 1081.73Q775.65 1081.59 776.14 1081.37V1085.09Q775.6 1085.3 774.59 1085.44Q773.58 1085.58 772.32 1085.58ZM757.74 1060.95V1057.24H776.14V1060.95ZM792.58 1085.63Q788.59 1085.63 785.53 1083.75Q782.48 1081.86 780.73 1078.59Q778.98 1075.31 778.98 1071.05Q778.98 1066.79 780.7 1063.55Q782.42 1060.3 785.53 1058.49Q788.65 1056.69 792.69 1056.69Q796.56 1056.69 799.43 1058.39Q802.3 1060.08 803.85 1063.14Q805.41 1066.19 805.41 1070.34Q805.41 1070.89 805.38 1071.38Q805.35 1071.87 805.25 1072.47H782.26V1068.81H802.57L801.15 1070.83Q801.15 1065.81 798.94 1063.11Q796.73 1060.41 792.69 1060.41Q788.54 1060.41 786 1063.27Q783.46 1066.14 783.46 1071Q783.46 1075.97 786 1078.94Q788.54 1081.92 792.8 1081.92Q795.47 1081.92 797.49 1080.74Q799.51 1079.57 800.44 1077.39H804.59Q803.22 1081.21 800.03 1083.42Q796.84 1085.63 792.58 1085.63ZM811.96 1085.09V1057.24H816.06V1064.34H816.33V1085.09ZM816.33 1070.56 815.62 1063.95Q816.6 1060.41 819.11 1058.55Q821.63 1056.69 824.9 1056.69Q826.27 1056.69 826.76 1056.91V1061.12Q826.48 1061.01 825.99 1060.98Q825.5 1060.95 824.79 1060.95Q820.64 1060.95 818.49 1063.44Q816.33 1065.92 816.33 1070.56ZM838.99 1066.79V1061.17H844.61V1066.79ZM857.5 1085.09 872.68 1045.77H876.61L861.81 1085.09ZM888.73 1085.09 873.93 1045.77H878.14L893.32 1085.09ZM865.03 1069.2H885.56V1073.13H865.03ZM913.41 1085.58Q909.48 1085.58 906.8 1083.67Q904.13 1081.75 903.14 1078.26L904.02 1078.15V1096.28H899.65V1057.24H903.74V1063.74L903.14 1063.57Q904.18 1060.35 907.07 1058.52Q909.97 1056.69 913.79 1056.69Q917.5 1056.69 920.26 1058.49Q923.02 1060.3 924.55 1063.52Q926.08 1066.74 926.08 1071.05Q926.08 1075.42 924.49 1078.7Q922.91 1081.97 920.07 1083.77Q917.23 1085.58 913.41 1085.58ZM912.75 1081.75Q916.9 1081.75 919.25 1078.89Q921.6 1076.02 921.6 1071.05Q921.6 1066.14 919.25 1063.33Q916.9 1060.51 912.75 1060.51Q908.6 1060.51 906.2 1063.38Q903.8 1066.25 903.8 1071.22Q903.8 1076.08 906.2 1078.92Q908.6 1081.75 912.75 1081.75ZM946.5 1085.58Q942.57 1085.58 939.89 1083.67Q937.21 1081.75 936.23 1078.26L937.11 1078.15V1096.28H932.74V1057.24H936.83V1063.74L936.23 1063.57Q937.27 1060.35 940.16 1058.52Q943.06 1056.69 946.88 1056.69Q950.59 1056.69 953.35 1058.49Q956.11 1060.3 957.63 1063.52Q959.16 1066.74 959.16 1071.05Q959.16 1075.42 957.58 1078.7Q956 1081.97 953.16 1083.77Q950.32 1085.58 946.5 1085.58ZM945.84 1081.75Q949.99 1081.75 952.34 1078.89Q954.69 1076.02 954.69 1071.05Q954.69 1066.14 952.34 1063.33Q949.99 1060.51 945.84 1060.51Q941.69 1060.51 939.29 1063.38Q936.89 1066.25 936.89 1071.22Q936.89 1076.08 939.29 1078.92Q941.69 1081.75 945.84 1081.75ZM965.83 1085.09V1045.77H970.19V1085.09ZM990.34 1085.63Q986.35 1085.63 983.3 1083.75Q980.24 1081.86 978.49 1078.59Q976.75 1075.31 976.75 1071.05Q976.75 1066.79 978.47 1063.55Q980.18 1060.3 983.3 1058.49Q986.41 1056.69 990.45 1056.69Q994.33 1056.69 997.19 1058.39Q1000.06 1060.08 1001.62 1063.14Q1003.17 1066.19 1003.17 1070.34Q1003.17 1070.89 1003.14 1071.38Q1003.12 1071.87 1003.01 1072.47H980.02V1068.81H1000.33L998.91 1070.83Q998.91 1065.81 996.7 1063.11Q994.49 1060.41 990.45 1060.41Q986.3 1060.41 983.76 1063.27Q981.22 1066.14 981.22 1071Q981.22 1075.97 983.76 1078.94Q986.3 1081.92 990.56 1081.92Q993.23 1081.92 995.25 1080.74Q997.27 1079.57 998.2 1077.39H1002.35Q1000.99 1081.21 997.79 1083.42Q994.6 1085.63 990.34 1085.63ZM1030.09 1085.63Q1024.96 1085.63 1021.9 1083.26Q1018.84 1080.88 1018.41 1076.51H1022.61Q1022.99 1079.19 1024.96 1080.61Q1026.92 1082.03 1030.2 1082.03Q1033.09 1082.03 1034.73 1080.94Q1036.37 1079.84 1036.37 1077.82Q1036.37 1076.4 1035.44 1075.34Q1034.51 1074.27 1031.73 1073.56L1027.25 1072.42Q1023.43 1071.43 1021.52 1069.39Q1019.61 1067.34 1019.61 1064.5Q1019.61 1060.9 1022.28 1058.79Q1024.96 1056.69 1029.54 1056.69Q1034.08 1056.69 1036.91 1058.88Q1039.75 1061.06 1040.14 1064.94H1035.93Q1035.55 1062.7 1033.86 1061.5Q1032.16 1060.3 1029.38 1060.3Q1026.7 1060.3 1025.23 1061.31Q1023.76 1062.32 1023.76 1064.17Q1023.76 1065.59 1024.82 1066.63Q1025.89 1067.67 1028.4 1068.38L1032.77 1069.58Q1036.64 1070.62 1038.61 1072.75Q1040.57 1074.87 1040.57 1077.88Q1040.57 1081.54 1037.79 1083.58Q1035 1085.63 1030.09 1085.63ZM1046.91 1085.09V1057.24H1051.27V1085.09ZM1046.58 1050.91V1045.77H1051.6V1050.91ZM1060.01 1085.09V1045.77H1064.38V1085.09ZM1073.11 1085.09V1057.24H1077.48V1085.09ZM1072.79 1050.91V1045.77H1077.81V1050.91ZM1097.14 1085.63Q1093.32 1085.63 1090.34 1083.75Q1087.37 1081.86 1085.65 1078.56Q1083.93 1075.26 1083.93 1071.05Q1083.93 1066.85 1085.65 1063.63Q1087.37 1060.41 1090.34 1058.55Q1093.32 1056.69 1097.08 1056.69Q1100.2 1056.69 1102.68 1057.89Q1105.17 1059.1 1106.78 1061.31Q1108.39 1063.52 1108.82 1066.47H1104.78Q1104.24 1063.79 1102.27 1062.1Q1100.31 1060.41 1097.19 1060.41Q1094.52 1060.41 1092.55 1061.72Q1090.59 1063.03 1089.5 1065.43Q1088.4 1067.83 1088.4 1071.05Q1088.4 1074.27 1089.5 1076.73Q1090.59 1079.19 1092.58 1080.55Q1094.57 1081.92 1097.25 1081.92Q1100.25 1081.92 1102.27 1080.25Q1104.29 1078.59 1104.84 1075.91H1108.88Q1108.39 1078.81 1106.72 1081.02Q1105.06 1083.23 1102.6 1084.43Q1100.14 1085.63 1097.14 1085.63ZM1126.68 1085.63Q1122.58 1085.63 1119.47 1083.72Q1116.36 1081.81 1114.64 1078.51Q1112.92 1075.2 1112.92 1071.05Q1112.92 1066.85 1114.67 1063.63Q1116.41 1060.41 1119.5 1058.55Q1122.58 1056.69 1126.68 1056.69Q1130.83 1056.69 1133.91 1058.55Q1137 1060.41 1138.72 1063.63Q1140.44 1066.85 1140.44 1071.05Q1140.44 1075.2 1138.72 1078.51Q1137 1081.81 1133.91 1083.72Q1130.83 1085.63 1126.68 1085.63ZM1126.68 1081.92Q1129.52 1081.92 1131.59 1080.53Q1133.67 1079.13 1134.81 1076.68Q1135.96 1074.22 1135.96 1071Q1135.96 1066.19 1133.42 1063.3Q1130.88 1060.41 1126.68 1060.41Q1122.53 1060.41 1119.96 1063.3Q1117.4 1066.19 1117.4 1071Q1117.4 1074.22 1118.54 1076.68Q1119.69 1079.13 1121.79 1080.53Q1123.89 1081.92 1126.68 1081.92ZM1146.99 1085.09V1057.24H1151.08V1063.79H1151.36V1085.09ZM1166.92 1085.09V1066.85Q1166.92 1063.68 1165.34 1062.1Q1163.75 1060.51 1160.64 1060.51Q1157.91 1060.51 1155.81 1061.72Q1153.71 1062.92 1152.53 1065.05Q1151.36 1067.18 1151.36 1070.02L1150.65 1063.41Q1152.07 1060.3 1154.99 1058.49Q1157.91 1056.69 1161.62 1056.69Q1165.99 1056.69 1168.64 1059.18Q1171.29 1061.66 1171.29 1065.7V1085.09Z" fill="#5F6680"/></svg>
